<svg width="50" height="50" viewBox="0 0 50 50" fill="none" xmlns="http://www.w3.org/2000/svg">
<g clip-path="url(#clip0_549_910)">
<path d="M49.9762 25.4678C49.9762 23.4193 49.8061 21.9245 49.4379 20.3743H25.498V29.6201H39.5502C39.267 31.9178 37.7371 35.3781 34.3373 37.7033L34.2896 38.0128L41.859 43.7424L42.3834 43.7935C47.1996 39.4474 49.9762 33.0527 49.9762 25.4678Z" fill="#4285F4"/>
<path d="M25.498 49.8283C32.3824 49.8283 38.1619 47.6136 42.3834 43.7935L34.3373 37.7033C32.1842 39.1704 29.2943 40.1947 25.498 40.1947C18.7553 40.1947 13.0324 35.8487 10.9924 29.8416L10.6934 29.8664L2.82266 35.8181L2.71973 36.0977C6.9127 44.2363 15.5254 49.8283 25.498 49.8283Z" fill="#34A853"/>
<path d="M10.9924 29.8416C10.4541 28.2914 10.1426 26.6303 10.1426 24.9141C10.1426 23.1977 10.4541 21.5368 10.9641 19.9866L10.9498 19.6565L2.98047 13.6091L2.71973 13.7303C0.991602 17.1076 0 20.9002 0 24.9141C0 28.928 0.991602 32.7204 2.71973 36.0977L10.9924 29.8416Z" fill="#FBBC05"/>
<path d="M25.498 9.6334C30.2859 9.6334 33.5156 11.6542 35.3572 13.3429L42.5533 6.47767C38.1338 2.46374 32.3824 0 25.498 0C15.5254 0 6.91269 5.59179 2.71973 13.7303L10.9641 19.9866C13.0324 13.9796 18.7553 9.6334 25.498 9.6334Z" fill="#EB4335"/>
</g>
<defs>
<clipPath id="clip0_549_910">
<rect width="50" height="50" fill="white"/>
</clipPath>
</defs>
</svg>
