<svg width="1440" height="559" viewBox="0 0 1440 559" fill="none" xmlns="http://www.w3.org/2000/svg">
<path opacity="0.2" fill-rule="evenodd" clip-rule="evenodd" d="M0 25.6903C0 25.6903 283.196 61.977 548.438 61.977C813.679 61.977 949.747 12.6217 1106.44 2.03203C1263.13 -8.55765 1440 25.6903 1440 25.6903V559H0V25.6903Z" fill="#D1C4E9"/>
<g opacity="0.1">
<path fill-rule="evenodd" clip-rule="evenodd" d="M0 478.944C0 478.944 283.196 538.514 548.438 538.514C813.679 538.514 949.747 457.49 1106.44 440.106C1263.13 422.721 1440 478.944 1440 478.944V556.743H0V478.944Z" fill="black"/>
<mask id="mask0_0_1" style="mask-type:luminance" maskUnits="userSpaceOnUse" x="0" y="436" width="1440" height="121">
<path fill-rule="evenodd" clip-rule="evenodd" d="M0 478.944C0 478.944 283.196 538.514 548.438 538.514C813.679 538.514 949.747 457.49 1106.44 440.106C1263.13 422.721 1440 478.944 1440 478.944V556.743H0V478.944Z" fill="white"/>
</mask>
<g mask="url(#mask0_0_1)">
<ellipse cx="796.5" cy="628.856" rx="253.5" ry="147.37" fill="#673AB7"/>
<ellipse cx="538.5" cy="563.105" rx="494.5" ry="207.725" fill="url(#paint0_linear_0_1)"/>
<ellipse cx="1114.5" cy="443.679" rx="255.5" ry="201.503" fill="url(#paint1_linear_0_1)"/>
<ellipse cx="1440" cy="518.122" rx="210" ry="89.006" fill="#E91E63"/>
<ellipse cx="264.5" cy="541.216" rx="494.5" ry="207.725" fill="#B2EBF2"/>
<ellipse cx="169" cy="490.322" rx="252" ry="137.662" fill="url(#paint2_linear_0_1)"/>
<ellipse cy="415.554" rx="217" ry="92.3538" fill="#D1C4E9"/>
</g>
</g>
<defs>
<linearGradient id="paint0_linear_0_1" x1="766.225" y1="60.1736" x2="-167.732" y2="1056.77" gradientUnits="userSpaceOnUse">
<stop stop-color="#00BCD4"/>
<stop offset="1" stop-color="#673AB7"/>
</linearGradient>
<linearGradient id="paint1_linear_0_1" x1="1103.19" y1="-49.7294" x2="714.512" y2="571.399" gradientUnits="userSpaceOnUse">
<stop stop-color="#673AB7"/>
<stop offset="1" stop-color="#D1C4E9"/>
<stop offset="1" stop-color="#D1C4E9"/>
</linearGradient>
<linearGradient id="paint2_linear_0_1" x1="56.9271" y1="288.062" x2="-26.9221" y2="572.429" gradientUnits="userSpaceOnUse">
<stop stop-color="#E91E63"/>
<stop offset="1" stop-color="#F8BBD0"/>
</linearGradient>
</defs>
</svg>
