<svg width="1440" height="121" viewBox="0 0 1440 121" fill="none" xmlns="http://www.w3.org/2000/svg">
<g opacity="0.1">
<path fill-rule="evenodd" clip-rule="evenodd" d="M0 42.9443C0 42.9443 283.196 102.514 548.438 102.514C813.679 102.514 949.747 21.4903 1106.44 4.10583C1263.13 -13.2786 1440 42.9443 1440 42.9443V120.743H0V42.9443Z" fill="black"/>
<mask id="mask0_0_869" style="mask-type:luminance" maskUnits="userSpaceOnUse" x="0" y="0" width="1440" height="121">
<path fill-rule="evenodd" clip-rule="evenodd" d="M0 42.9443C0 42.9443 283.196 102.514 548.438 102.514C813.679 102.514 949.747 21.4903 1106.44 4.10583C1263.13 -13.2786 1440 42.9443 1440 42.9443V120.743H0V42.9443Z" fill="white"/>
</mask>
<g mask="url(#mask0_0_869)">
<ellipse cx="796.5" cy="192.856" rx="253.5" ry="147.37" fill="#673AB7"/>
<ellipse cx="538.5" cy="127.105" rx="494.5" ry="207.725" fill="url(#paint0_linear_0_869)"/>
<ellipse cx="1114.5" cy="7.67918" rx="255.5" ry="201.503" fill="url(#paint1_linear_0_869)"/>
<ellipse cx="1440" cy="82.1217" rx="210" ry="89.006" fill="#E91E63"/>
<ellipse cx="264.5" cy="105.216" rx="494.5" ry="207.725" fill="#B2EBF2"/>
<ellipse cx="169" cy="54.3217" rx="252" ry="137.662" fill="url(#paint2_linear_0_869)"/>
<ellipse cy="-20.4455" rx="217" ry="92.3538" fill="#D1C4E9"/>
</g>
</g>
<defs>
<linearGradient id="paint0_linear_0_869" x1="766.225" y1="-375.826" x2="-167.732" y2="620.765" gradientUnits="userSpaceOnUse">
<stop stop-color="#00BCD4"/>
<stop offset="1" stop-color="#673AB7"/>
</linearGradient>
<linearGradient id="paint1_linear_0_869" x1="1103.19" y1="-485.729" x2="714.512" y2="135.399" gradientUnits="userSpaceOnUse">
<stop stop-color="#673AB7"/>
<stop offset="1" stop-color="#D1C4E9"/>
<stop offset="1" stop-color="#D1C4E9"/>
</linearGradient>
<linearGradient id="paint2_linear_0_869" x1="56.9271" y1="-147.938" x2="-26.9221" y2="136.429" gradientUnits="userSpaceOnUse">
<stop stop-color="#E91E63"/>
<stop offset="1" stop-color="#F8BBD0"/>
</linearGradient>
</defs>
</svg>
