<svg width="540" height="843" viewBox="0 0 1660 780" fill="none" xmlns="http://www.w3.org/2000/svg">
<g opacity="0.1">
<path fill-rule="evenodd" clip-rule="evenodd" d="M498 -53.0001C837 118 869.395 -194.416 1016.76 73.9999C1164.12 342.416 774 467 1048 646C1322 825 761 946 566 718C371 490 173.448 724.094 34.8732 627.926C-103.702 531.758 234 280 93 169C-48 57.9999 159 -224 498 -53.0001Z" fill="url(#paint0_linear_0_1269)"/>
<mask id="mask0_0_1269" style="mask-type:luminance" maskUnits="userSpaceOnUse" x="0" y="-107" width="1122" height="950">
<path fill-rule="evenodd" clip-rule="evenodd" d="M498 -53.0001C837 118 869.395 -194.416 1016.76 73.9999C1164.12 342.416 774 467 1048 646C1322 825 761 946 566 718C371 490 173.448 724.094 34.8732 627.926C-103.702 531.758 234 280 93 169C-48 57.9999 159 -224 498 -53.0001Z" fill="white"/>
</mask>
<g mask="url(#mask0_0_1269)">
<ellipse cx="724.83" cy="459.279" rx="189.83" ry="278.28" fill="#673AB7"/>
<ellipse cx="558.781" cy="364.347" rx="215.781" ry="489.347" transform="rotate(41 558.781 364.347)" fill="url(#paint1_linear_0_1269)"/>
<ellipse cx="350.893" cy="321.88" rx="215.781" ry="489.347" transform="rotate(41 350.893 321.88)" fill="#B2EBF2"/>
<ellipse cx="219.501" cy="180.764" rx="137.8" ry="289.467" transform="rotate(41 219.501 180.764)" fill="url(#paint2_linear_0_1269)"/>
<ellipse cx="128" cy="56.5" rx="118" ry="207" transform="rotate(41 128 56.5)" fill="#D1C4E9"/>
<ellipse cx="393.333" cy="717.915" rx="202.333" ry="183.915" transform="rotate(92 393.333 717.915)" fill="#E91E63"/>
</g>
</g>
<defs>
<linearGradient id="paint0_linear_0_1269" x1="536.552" y1="-794.488" x2="-406.173" y2="608.532" gradientUnits="userSpaceOnUse">
<stop stop-color="#00BCD4"/>
<stop offset="1" stop-color="#B2EBF2"/>
<stop offset="1" stop-color="#D1C4E9"/>
</linearGradient>
<linearGradient id="paint1_linear_0_1269" x1="291.411" y1="-152.907" x2="-12.1972" y2="803.909" gradientUnits="userSpaceOnUse">
<stop stop-color="#00BCD4"/>
<stop offset="1" stop-color="#673AB7"/>
</linearGradient>
<linearGradient id="paint2_linear_0_1269" x1="189.173" y1="-396.972" x2="-219.515" y2="-78.0541" gradientUnits="userSpaceOnUse">
<stop stop-color="#00BCD4"/>
<stop offset="1" stop-color="#673AB7"/>
</linearGradient>
</defs>
</svg>
