<svg width="1440" height="672" viewBox="0 0 1520 630" fill="none" xmlns="http://www.w3.org/2000/svg">
<g opacity="0.1">
<path fill-rule="evenodd" clip-rule="evenodd" d="M0 81.0921C0 81.0921 283.196 193.578 548.438 193.578C813.679 193.578 949.747 40.5804 1106.44 7.75309C1263.13 -25.0742 1440 81.0921 1440 81.0921V228H0V81.0921Z" fill="black"/>
<mask id="mask0_0_1653" style="mask-type:luminance" maskUnits="userSpaceOnUse" x="0" y="1" width="1440" height="227">
<path fill-rule="evenodd" clip-rule="evenodd" d="M0 81.0921C0 81.0921 283.196 193.578 548.438 193.578C813.679 193.578 949.747 40.5804 1106.44 7.75309C1263.13 -25.0742 1440 81.0921 1440 81.0921V228H0V81.0921Z" fill="white"/>
</mask>
<g mask="url(#mask0_0_1653)">
<ellipse cx="796.5" cy="364.172" rx="253.5" ry="278.28" fill="#673AB7"/>
<ellipse cx="538.5" cy="240.013" rx="494.5" ry="392.25" fill="url(#paint0_linear_0_1653)"/>
<ellipse cx="1114.5" cy="14.5" rx="255.5" ry="380.5" fill="url(#paint1_linear_0_1653)"/>
<ellipse cx="1440" cy="155.071" rx="210" ry="168.071" fill="#E91E63"/>
<ellipse cx="264.5" cy="198.681" rx="494.5" ry="392.25" fill="#B2EBF2"/>
<ellipse cx="169" cy="102.576" rx="252" ry="259.949" fill="url(#paint2_linear_0_1653)"/>
<ellipse cy="-38.6074" rx="217" ry="174.393" fill="#D1C4E9"/>
</g>
</g>
<defs>
<linearGradient id="paint0_linear_0_1653" x1="766.225" y1="-709.677" x2="-747.718" y2="145.835" gradientUnits="userSpaceOnUse">
<stop stop-color="#00BCD4"/>
<stop offset="1" stop-color="#673AB7"/>
</linearGradient>
<linearGradient id="paint1_linear_0_1653" x1="1103.19" y1="-917.209" x2="298.346" y2="-236.077" gradientUnits="userSpaceOnUse">
<stop stop-color="#673AB7"/>
<stop offset="1" stop-color="#D1C4E9"/>
<stop offset="1" stop-color="#D1C4E9"/>
</linearGradient>
<linearGradient id="paint2_linear_0_1653" x1="56.9271" y1="-279.354" x2="-191.144" y2="166.183" gradientUnits="userSpaceOnUse">
<stop stop-color="#E91E63"/>
<stop offset="1" stop-color="#F8BBD0"/>
</linearGradient>
</defs>
</svg>
