<svg width="1440" height="227" viewBox="0 0 1366 768" fill="none" xmlns="http://www.w3.org/2000/svg">
<g opacity="0.1">
<path fill-rule="evenodd" clip-rule="evenodd" d="M1440 147.362C1440 147.362 1140.48 34.8756 859.951 34.8756C579.421 34.8756 435.51 187.874 269.789 220.701C104.067 253.528 -83 147.362 -83 147.362V0.453949H1440V147.362Z" fill="black"/>
<mask id="mask0_545_1075" style="mask-type:luminance" maskUnits="userSpaceOnUse" x="-83" y="0" width="1523" height="227">
<path fill-rule="evenodd" clip-rule="evenodd" d="M1440 147.362C1440 147.362 1140.48 34.8756 859.951 34.8756C579.421 34.8756 435.51 187.874 269.789 220.701C104.067 253.528 -83 147.362 -83 147.362V0.453949H1440V147.362Z" fill="white"/>
</mask>
<g mask="url(#mask0_545_1075)">
<path d="M329.479 -135.718C329.479 -289.408 449.517 -413.998 597.591 -413.998C745.664 -413.998 865.702 -289.408 865.702 -135.718C865.702 17.9714 745.664 142.561 597.591 142.561C449.517 142.561 329.479 17.9714 329.479 -135.718Z" fill="#673AB7"/>
<path d="M347.459 -11.5593C347.459 -228.193 581.615 -403.809 870.461 -403.809C1159.31 -403.809 1393.46 -228.193 1393.46 -11.5593C1393.46 205.074 1159.31 380.69 870.461 380.69C581.615 380.69 347.459 205.074 347.459 -11.5593Z" fill="url(#paint0_linear_545_1075)"/>
<path d="M-8.96527 213.954C-8.96527 3.8096 112.019 -166.546 261.261 -166.546C410.504 -166.546 531.488 3.8096 531.488 213.954C531.488 424.098 410.504 594.454 261.261 594.454C112.019 594.454 -8.96527 424.098 -8.96527 213.954Z" fill="url(#paint1_linear_545_1075)"/>
<path d="M-305.104 73.383C-305.104 -19.44 -205.665 -94.6879 -83 -94.6879C39.6647 -94.6879 139.104 -19.44 139.104 73.383C139.104 166.206 39.6647 241.454 -83 241.454C-205.665 241.454 -305.104 166.206 -305.104 73.383Z" fill="#E91E63"/>
<path d="M637.252 29.7733C637.252 -186.86 871.408 -362.476 1160.25 -362.476C1449.1 -362.476 1683.26 -186.86 1683.26 29.7733C1683.26 246.407 1449.1 422.023 1160.25 422.023C871.408 422.023 637.252 246.407 637.252 29.7733Z" fill="#B2EBF2"/>
<path d="M994.734 125.878C994.734 -17.6875 1114.06 -134.07 1261.26 -134.07C1408.46 -134.07 1527.78 -17.6875 1527.78 125.878C1527.78 269.444 1408.46 385.827 1261.26 385.827C1114.06 385.827 994.734 269.444 994.734 125.878Z" fill="url(#paint2_linear_545_1075)"/>
<path d="M1210.49 267.061C1210.49 170.747 1313.25 92.6688 1440 92.6688C1566.75 92.6688 1669.51 170.747 1669.51 267.061C1669.51 363.376 1566.75 441.454 1440 441.454C1313.25 441.454 1210.49 363.376 1210.49 267.061Z" fill="#D1C4E9"/>
</g>
</g>
<defs>
<linearGradient id="paint0_linear_545_1075" x1="629.61" y1="938.131" x2="2186.13" y2="7.85906" gradientUnits="userSpaceOnUse">
<stop stop-color="#00BCD4" stop-opacity="0"/>
<stop offset="1" stop-color="#673AB7"/>
</linearGradient>
<linearGradient id="paint1_linear_545_1075" x1="273.226" y1="1145.66" x2="1084.31" y2="419.681" gradientUnits="userSpaceOnUse">
<stop offset="0.175954" stop-color="#149FEE"/>
<stop offset="1" stop-color="#D1C4E9"/>
<stop offset="1" stop-color="#D1C4E9"/>
</linearGradient>
<linearGradient id="paint2_linear_545_1075" x1="1379.79" y1="507.808" x2="1620.38" y2="50.804" gradientUnits="userSpaceOnUse">
<stop stop-color="#E91E63"/>
<stop offset="1" stop-color="#F8BBD0"/>
</linearGradient>
</defs>
</svg>
